<svg width="24" height="24" viewBox="0 0 24 24" fill="none" xmlns="http://www.w3.org/2000/svg">
<path fill-rule="evenodd" clip-rule="evenodd" d="M21.5813 6.18628C22.0307 6.50729 22.1348 7.13184 21.8138 7.58125L16.8138 14.5813C16.5278 14.9817 15.993 15.1145 15.5529 14.8944L8.31715 11.2766L3.81381 17.5813C3.4928 18.0307 2.86825 18.1348 2.41884 17.8137C1.96943 17.4927 1.86534 16.8682 2.18634 16.4188L7.18634 9.41878C7.47236 9.01836 8.00717 8.88553 8.44729 9.10559L15.683 12.7234L20.1863 6.41878C20.5074 5.96937 21.1319 5.86527 21.5813 6.18628Z" fill="#838FAE"/>
<path d="M21 10C22.6569 10 24 8.65685 24 7C24 5.34315 22.6569 4 21 4C19.3431 4 18 5.34315 18 7C18 8.65685 19.3431 10 21 10Z" fill="#178FE1"/>
<path d="M8 13C9.65685 13 11 11.6569 11 10C11 8.34315 9.65685 7 8 7C6.34315 7 5 8.34315 5 10C5 11.6569 6.34315 13 8 13Z" fill="#178FE1"/>
<path d="M3 20C4.65685 20 6 18.6569 6 17C6 15.3431 4.65685 14 3 14C1.34315 14 0 15.3431 0 17C0 18.6569 1.34315 20 3 20Z" fill="#178FE1"/>
<path d="M19 14C19 15.6569 17.6569 17 16 17C14.3431 17 13 15.6569 13 14C13 12.3431 14.3431 11 16 11C17.6569 11 19 12.3431 19 14Z" fill="#178FE1"/>
</svg>
