<svg width="24" height="24" viewBox="0 0 24 24" fill="none" xmlns="http://www.w3.org/2000/svg">
<path d="M19.7754 8.86929C19.0786 7.10728 18.0625 5.47539 16.7734 4.04786C14.5425 1.58839 11.6091 0 9.3 0C9.1627 9.75171e-05 9.02724 0.0301111 8.904 0.0877435C8.78076 0.145376 8.67299 0.229099 8.58895 0.332505C8.50491 0.435911 8.44683 0.556257 8.41915 0.684333C8.39147 0.81241 8.39493 0.94482 8.42925 1.07143C9.20944 3.91071 7.59225 6.27161 5.88056 8.77071C4.4625 10.8407 3 12.9788 3 15.4286C3 20.1546 7.03762 24 12 24C16.9624 24 21 20.1546 21 15.4286C21 13.1089 20.5882 10.9023 19.7754 8.86929ZM13.8186 20.7155C13.2375 21.3048 12.5091 21.4286 12 21.4286C11.4909 21.4286 10.7625 21.3048 10.1814 20.7155C9.60037 20.1263 9.3 19.1914 9.3 18C9.3 16.6532 9.79612 15.6279 10.2754 14.6368C10.5538 14.0614 10.8379 13.4759 11.0066 12.8491C11.0245 12.7809 11.0598 12.718 11.1093 12.6658C11.1587 12.6137 11.2209 12.5739 11.2903 12.5501C11.3597 12.5262 11.4342 12.5189 11.5073 12.529C11.5803 12.539 11.6497 12.566 11.7092 12.6075C12.2237 12.9866 12.6811 13.4311 13.0687 13.9286C14.0908 15.2143 14.7 16.7368 14.7 18C14.7 19.1914 14.3951 20.1305 13.8186 20.7155Z" fill="#178FE1"/>
</svg>
