<svg width="16" height="16" viewBox="0 0 16 16" fill="none" xmlns="http://www.w3.org/2000/svg">
<path fill-rule="evenodd" clip-rule="evenodd" d="M7.65735 3.17863C5.1478 3.35432 3.1665 5.44579 3.1665 8.00002C3.1665 10.6694 5.33046 12.8334 7.99984 12.8334C10.1384 12.8334 11.953 11.4441 12.5897 9.51913C12.0997 9.72159 11.5626 9.83335 10.9998 9.83335C8.69865 9.83335 6.83317 7.96787 6.83317 5.66669C6.83317 4.73392 7.13991 3.87275 7.65735 3.17863ZM2.1665 8.00002C2.1665 4.77836 4.77818 2.16669 7.99984 2.16669C8.29958 2.16669 8.59436 2.18934 8.88247 2.2331C9.08178 2.26337 9.24341 2.41038 9.2924 2.60593C9.34139 2.80148 9.26815 3.00732 9.10665 3.12798C8.33266 3.70625 7.83317 4.62808 7.83317 5.66669C7.83317 7.41559 9.25093 8.83335 10.9998 8.83335C11.756 8.83335 12.449 8.56895 12.9935 8.12711C13.15 8.00015 13.3674 7.97951 13.5449 8.07475C13.7225 8.17 13.8255 8.36252 13.8063 8.56309C13.5227 11.5208 11.0316 13.8334 7.99984 13.8334C4.77818 13.8334 2.1665 11.2217 2.1665 8.00002Z" fill="white"/>
</svg>
