<svg width="24" height="22" viewBox="0 0 24 22" fill="none" xmlns="http://www.w3.org/2000/svg">
<g clip-path="url(#clip0_14192_126833)">
<g clip-path="url(#clip1_14192_126833)">
<circle cx="14.625" cy="16.875" r="4.875" fill="#178FE1"/>
<circle cx="4.875" cy="5.625" r="4.875" fill="#178FE1"/>
<path d="M2.89706 13.6899L0.196557 16.3966C0.0706476 16.5238 -1.39692e-07 16.6958 -1.47526e-07 16.875C-1.55359e-07 17.0542 0.0706476 17.2262 0.196557 17.3534L2.89706 20.0601C3.02439 20.1833 3.19493 20.2515 3.37194 20.25C3.54896 20.2484 3.71829 20.1773 3.84346 20.0518C3.96864 19.9264 4.03964 19.7566 4.04118 19.5792C4.04271 19.4018 3.97467 19.2309 3.85169 19.1033L2.30362 17.5517L6.07487 17.5517C6.25393 17.5517 6.42565 17.4804 6.55226 17.3535C6.67887 17.2266 6.75 17.0545 6.75 16.875C6.75 16.6955 6.67887 16.5234 6.55226 16.3965C6.42565 16.2696 6.25393 16.1983 6.07487 16.1983L2.30362 16.1983L3.85169 14.6467C3.97467 14.5191 4.04271 14.3482 4.04118 14.1708C4.03964 13.9934 3.96864 13.8236 3.84346 13.6982C3.71829 13.5727 3.54896 13.5016 3.37194 13.5C3.19493 13.4985 3.02439 13.5667 2.89706 13.6899Z" fill="#178FE1"/>
<path d="M16.6029 2.43995L19.3034 5.1466C19.4294 5.27384 19.5 5.44579 19.5 5.625C19.5 5.80421 19.4294 5.97616 19.3034 6.1034L16.6029 8.81005C16.4756 8.93331 16.3051 9.00152 16.1281 8.99997C15.951 8.99843 15.7817 8.92727 15.6565 8.80181C15.5314 8.67635 15.4604 8.50663 15.4588 8.32922C15.4573 8.1518 15.5253 7.98087 15.6483 7.85325L17.1964 6.30166L13.4251 6.30166C13.2461 6.30166 13.0744 6.23037 12.9477 6.10347C12.8211 5.97657 12.75 5.80446 12.75 5.625C12.75 5.44554 12.8211 5.27343 12.9477 5.14653C13.0744 5.01963 13.2461 4.94834 13.4251 4.94834L17.1964 4.94834L15.6483 3.39675C15.5253 3.26913 15.4573 3.0982 15.4588 2.92078C15.4604 2.74336 15.5314 2.57365 15.6565 2.44819C15.7817 2.32273 15.951 2.25157 16.1281 2.25003C16.3051 2.24848 16.4756 2.31669 16.6029 2.43995Z" fill="#178FE1"/>
</g>
</g>
<defs>
<clipPath id="clip0_14192_126833">
<rect width="24" height="21.75" fill="white"/>
</clipPath>
<clipPath id="clip1_14192_126833">
<rect width="21.75" height="23.25" fill="white"/>
</clipPath>
</defs>
</svg>
