<svg width="16" height="16" viewBox="0 0 16 16" fill="none" xmlns="http://www.w3.org/2000/svg">
<path d="M8.00004 0.833313C8.27618 0.833313 8.50004 1.05717 8.50004 1.33331V1.99998C8.50004 2.27612 8.27618 2.49998 8.00004 2.49998C7.7239 2.49998 7.50004 2.27612 7.50004 1.99998V1.33331C7.50004 1.05717 7.7239 0.833313 8.00004 0.833313Z" fill="#178FE1"/>
<path fill-rule="evenodd" clip-rule="evenodd" d="M4.16671 7.99998C4.16671 5.88289 5.88295 4.16665 8.00004 4.16665C10.1171 4.16665 11.8334 5.88289 11.8334 7.99998C11.8334 10.1171 10.1171 11.8333 8.00004 11.8333C5.88295 11.8333 4.16671 10.1171 4.16671 7.99998ZM8.00004 5.16665C6.43523 5.16665 5.16671 6.43517 5.16671 7.99998C5.16671 9.56479 6.43523 10.8333 8.00004 10.8333C9.56485 10.8333 10.8334 9.56479 10.8334 7.99998C10.8334 6.43517 9.56485 5.16665 8.00004 5.16665Z" fill="#178FE1"/>
<path d="M3.63956 2.9324C3.4443 2.73713 3.12771 2.73713 2.93245 2.9324C2.73719 3.12766 2.73719 3.44424 2.93245 3.6395L3.40386 4.11091C3.59912 4.30617 3.9157 4.30617 4.11096 4.11091C4.30622 3.91565 4.30622 3.59906 4.11096 3.4038L3.63956 2.9324Z" fill="#178FE1"/>
<path d="M15.1667 7.99998C15.1667 8.27612 14.9428 8.49998 14.6667 8.49998H14C13.7239 8.49998 13.5 8.27612 13.5 7.99998C13.5 7.72384 13.7239 7.49998 14 7.49998H14.6667C14.9428 7.49998 15.1667 7.72384 15.1667 7.99998Z" fill="#178FE1"/>
<path d="M13.0676 3.6395C13.2629 3.44423 13.2629 3.12765 13.0676 2.93239C12.8724 2.73713 12.5558 2.73713 12.3605 2.93239L11.8891 3.40379C11.6938 3.59906 11.6938 3.91564 11.8891 4.1109C12.0844 4.30616 12.401 4.30616 12.5962 4.1109L13.0676 3.6395Z" fill="#178FE1"/>
<path d="M8.00004 13.5C8.27618 13.5 8.50004 13.7238 8.50004 14V14.6666C8.50004 14.9428 8.27618 15.1666 8.00004 15.1666C7.7239 15.1666 7.50004 14.9428 7.50004 14.6666V14C7.50004 13.7238 7.7239 13.5 8.00004 13.5Z" fill="#178FE1"/>
<path d="M12.5963 11.8891C12.401 11.6938 12.0844 11.6938 11.8892 11.8891C11.6939 12.0843 11.6939 12.4009 11.8892 12.5962L12.3606 13.0676C12.5558 13.2628 12.8724 13.2628 13.0677 13.0676C13.2629 12.8723 13.2629 12.5557 13.0677 12.3605L12.5963 11.8891Z" fill="#178FE1"/>
<path d="M2.50004 7.99998C2.50004 8.27612 2.27618 8.49998 2.00004 8.49998H1.33337C1.05723 8.49998 0.833374 8.27612 0.833374 7.99998C0.833374 7.72384 1.05723 7.49998 1.33337 7.49998H2.00004C2.27618 7.49998 2.50004 7.72384 2.50004 7.99998Z" fill="#178FE1"/>
<path d="M4.11092 12.5962C4.30618 12.4009 4.30618 12.0843 4.11092 11.8891C3.91566 11.6938 3.59907 11.6938 3.40381 11.8891L2.93241 12.3605C2.73714 12.5557 2.73714 12.8723 2.93241 13.0676C3.12767 13.2628 3.44425 13.2628 3.63951 13.0676L4.11092 12.5962Z" fill="#178FE1"/>
</svg>
