<svg width="176" height="32" viewBox="0 0 176 32" fill="none" xmlns="http://www.w3.org/2000/svg">
<path opacity="0.5" d="M45.3454 26.8L51.9378 11.7746L58.6586 26.8H64L54.392 5.20001H49.5639L41.7043 22.7867V5.20001H37.2772H36.9403H32.016L28.006 11.4157L24.3649 5.20001H19.2321L25.0065 15.6085L21.6702 21.5142L14.3719 5.20001H9.73634L0 26.8H5.40551L11.998 11.8399L18.7188 26.8H24.0441L27.9098 20.1928L32.1925 26.8H45.3454ZM30.6206 15.69L36.9403 5.73838V25.6906L30.6206 15.69ZM6.94536 23.2925L12.0301 19.7523L17.0506 23.0804L18.7188 26.8L12.0301 22.3952L5.40551 26.8L6.94536 23.2925ZM46.8852 23.2925L51.9539 19.7523L57.0065 23.0967L58.6586 26.8L51.9378 22.3952L45.3454 26.8L46.8852 23.2925Z" fill="#178FE1"/>
<path d="M45.3454 26.8L51.9378 11.7746L58.6586 26.8H64L54.392 5.20001H49.5639L41.7043 22.7867V5.20001H37.2772H36.9403H32.016L28.006 11.4157L24.3649 5.20001H19.2321L25.0065 15.6085L21.6702 21.5142L14.3719 5.20001H9.73634L0 26.8H5.40551L11.998 11.8399L18.7188 26.8H24.0441L27.9098 20.1928L32.1925 26.8H45.3454ZM30.6206 15.69L36.9403 5.73838V25.6906L30.6206 15.69Z" fill="#178FE1"/>
<path d="M79.216 17.16V17.128C80.08 16.632 80.56 15.848 80.56 14.776C80.56 12.984 79.264 11.8 76.768 11.8H73.552C73.312 11.8 73.12 11.992 73.12 12.232V22.568C73.12 22.808 73.312 23 73.552 23H77.184C79.776 23 81.024 21.624 81.024 19.752C81.024 18.408 80.336 17.576 79.216 17.16ZM76.768 13.256C77.904 13.256 78.96 13.592 78.96 14.904C78.96 16.28 77.824 16.632 76.624 16.632H74.72V13.256H76.768ZM77.184 21.544H74.72V17.96H77.04C78.24 17.96 79.376 18.376 79.376 19.752C79.376 20.936 78.528 21.544 77.184 21.544ZM82.6963 12.232V22.568C82.6963 22.808 82.8883 23 83.1283 23H83.7363C83.9763 23 84.1523 22.808 84.1523 22.568V12.232C84.1523 11.992 83.9763 11.8 83.7363 11.8H83.1283C82.8883 11.8 82.6963 11.992 82.6963 12.232ZM90.0035 14.696C87.5555 14.696 85.7475 16.616 85.7475 18.952C85.7475 21.288 87.5555 23.208 90.0035 23.208C92.4515 23.208 94.2595 21.288 94.2595 18.952C94.2595 16.616 92.4515 14.696 90.0035 14.696ZM90.0035 21.816C88.4035 21.816 87.2515 20.6 87.2515 18.952C87.2515 17.288 88.4035 16.072 90.0035 16.072C91.6035 16.072 92.7715 17.288 92.7715 18.952C92.7715 20.6 91.6035 21.816 90.0035 21.816ZM99.6285 21.816C98.0285 21.816 96.8765 20.6 96.8765 18.952C96.8765 17.288 98.0285 16.072 99.6285 16.072C100.525 16.072 101.293 16.456 101.773 17.08C101.901 17.24 102.141 17.288 102.317 17.192L102.812 16.92C103.036 16.792 103.101 16.488 102.941 16.28C102.189 15.32 101.021 14.696 99.6285 14.696C97.1805 14.696 95.3725 16.6 95.3725 18.952C95.3725 21.288 97.1805 23.192 99.6285 23.192C101.021 23.192 102.189 22.568 102.941 21.608C103.101 21.4 103.036 21.096 102.812 20.968L102.317 20.696C102.141 20.6 101.901 20.648 101.773 20.808C101.293 21.432 100.525 21.816 99.6285 21.816ZM107.611 18.68L110.379 15.352C110.523 15.176 110.395 14.888 110.155 14.888H109.339C109.115 14.888 108.923 14.984 108.779 15.16L106.059 18.488V12.232C106.059 11.992 105.867 11.8 105.627 11.8H105.019C104.779 11.8 104.587 11.992 104.587 12.232V22.568C104.587 22.808 104.779 23 105.019 23H105.627C105.867 23 106.059 22.808 106.059 22.568V19.096L109.147 22.744C109.275 22.904 109.467 23 109.691 23H110.651C110.891 23 111.019 22.712 110.859 22.536L107.611 18.68ZM118.611 21.544V17.928H122.387C122.627 17.928 122.819 17.736 122.819 17.496V16.904C122.819 16.664 122.627 16.472 122.387 16.472H118.611V13.256H122.755C122.995 13.256 123.187 13.064 123.187 12.824V12.232C123.187 11.992 122.995 11.8 122.755 11.8H117.427C117.203 11.8 117.011 11.992 117.011 12.232V22.568C117.011 22.808 117.203 23 117.427 23H122.899C123.139 23 123.331 22.808 123.331 22.568V21.96C123.331 21.736 123.139 21.544 122.899 21.544H118.611ZM131.693 22.552L129.149 18.824L131.565 15.336C131.693 15.144 131.549 14.888 131.325 14.888H130.397C130.189 14.888 130.013 14.984 129.917 15.144L128.221 17.752L126.557 15.16C126.461 14.984 126.269 14.888 126.077 14.888H125.149C124.925 14.888 124.781 15.144 124.909 15.336L127.309 18.824L124.781 22.552C124.653 22.744 124.781 23 125.005 23H125.949C126.141 23 126.317 22.904 126.429 22.744L128.237 20.072L130.045 22.744C130.157 22.904 130.333 23 130.525 23H131.453C131.693 23 131.821 22.744 131.693 22.552ZM137.737 14.696C136.329 14.696 135.401 15.272 134.793 16.024V15.32C134.793 15.08 134.601 14.888 134.361 14.888H133.753C133.529 14.888 133.337 15.08 133.337 15.32V25.656C133.337 25.896 133.529 26.088 133.753 26.088H134.361C134.601 26.088 134.793 25.896 134.793 25.656V21.864C135.401 22.616 136.329 23.192 137.737 23.192C140.265 23.192 141.785 21.064 141.785 18.952C141.785 16.824 140.265 14.696 137.737 14.696ZM137.593 21.816C135.817 21.816 134.793 20.552 134.793 18.952C134.793 17.336 135.817 16.072 137.593 16.072C139.273 16.072 140.281 17.304 140.281 18.952C140.281 20.584 139.273 21.816 137.593 21.816ZM143.384 12.232V22.568C143.384 22.808 143.576 23 143.816 23H144.424C144.664 23 144.84 22.808 144.84 22.568V12.232C144.84 11.992 144.664 11.8 144.424 11.8H143.816C143.576 11.8 143.384 11.992 143.384 12.232ZM150.691 14.696C148.243 14.696 146.435 16.616 146.435 18.952C146.435 21.288 148.243 23.208 150.691 23.208C153.139 23.208 154.947 21.288 154.947 18.952C154.947 16.616 153.139 14.696 150.691 14.696ZM150.691 21.816C149.091 21.816 147.939 20.6 147.939 18.952C147.939 17.288 149.091 16.072 150.691 16.072C152.291 16.072 153.459 17.288 153.459 18.952C153.459 20.6 152.291 21.816 150.691 21.816ZM157.996 16.296V15.32C157.996 15.08 157.804 14.888 157.58 14.888H156.972C156.732 14.888 156.54 15.08 156.54 15.32V22.568C156.54 22.808 156.732 23 156.972 23H157.58C157.804 23 157.996 22.808 157.996 22.568V19.368C157.996 17.928 158.284 16.2 160.412 16.312C160.572 16.312 160.716 16.184 160.716 16.024V14.984C160.716 14.824 160.572 14.696 160.396 14.712C159.452 14.792 158.492 15.304 157.996 16.296ZM165.609 14.696C163.225 14.696 161.513 16.6 161.513 18.952C161.513 21.288 163.177 23.192 165.865 23.192C167.081 23.192 168.121 22.792 168.857 22.056C169.033 21.864 169.001 21.544 168.761 21.4L168.281 21.096C168.121 20.984 167.913 21 167.769 21.128C167.289 21.56 166.601 21.816 165.865 21.816C164.265 21.816 163.289 20.904 163.049 19.576H168.985C169.289 19.576 169.545 19.32 169.545 19.016C169.625 16.328 167.673 14.696 165.609 14.696ZM163.049 18.312C163.273 16.968 164.217 16.072 165.609 16.072C166.985 16.072 167.833 16.952 168.025 18.312H163.049ZM172.621 16.296V15.32C172.621 15.08 172.429 14.888 172.205 14.888H171.597C171.357 14.888 171.165 15.08 171.165 15.32V22.568C171.165 22.808 171.357 23 171.597 23H172.205C172.429 23 172.621 22.808 172.621 22.568V19.368C172.621 17.928 172.909 16.2 175.037 16.312C175.197 16.312 175.341 16.184 175.341 16.024V14.984C175.341 14.824 175.197 14.696 175.021 14.712C174.077 14.792 173.117 15.304 172.621 16.296Z" fill="#178FE1"/>
</svg>
